{
  "accessors": [
    {
      "bufferView": 0,
      "byteOffset": 0,
      "componentType": 5126,
      "count": 3034,
      "max": [
        1.307556,
        0.9131775,
        0.8170619
      ],
      "min": [
        -1.307556,
        -0.9631042999999999,
        -0.7441406
      ],
      "type": "VEC3"
    },
    {
      "bufferView": 0,
      "byteOffset": 36408,
      "componentType": 5126,
      "count": 3034,
      "max": [
        0.9970338,
        0.9999959999999999,
        0.9999014999999999
      ],
      "min": [
        -0.9970338,
        -0.998828,
        -0.9994199
      ],
      "type": "VEC3"
    },
    {
      "bufferView": 0,
      "byteOffset": 72816,
      "componentType": 5126,
      "count": 3034,
      "max": [
        1.0,
        1.0
      ],
      "min": [
        0.0,
        0.0
      ],
      "type": "VEC2"
    },
    {
      "bufferView": 1,
      "byteOffset": 0,
      "componentType": 5123,
      "count": 11808,
      "max": [
        3033
      ],
      "min": [
        0
      ],
      "type": "SCALAR"
    }
  ],
  "asset": {
    "generator": "clay fbx2gltf",
    "version": "2.0"
  },
  "bufferViews": [
    {
      "buffer": 0,
      "byteLength": 97088,
      "byteOffset": 0,
      "target": 34962
    },
    {
      "buffer": 0,
      "byteLength": 23616,
      "byteOffset": 97088,
      "target": 34963
    }
  ],
  "buffers": [
    {
      "byteLength": 120704,
      "uri": "suzanne.bin"
    }
  ],
  "extensionsUsed": [
    "KHR_materials_common"
  ],
  "materials": [
    {
      "emissiveFactor": [
        0.0,
        0.0,
        0.0
      ],
      "name": "Material_001",
      "pbrMetallicRoughness": {
        "baseColorFactor": [
          0.64,
          0.64,
          0.64,
          1
        ],
        "metallicFactor": 0,
        "roughnessFactor": 0.565857216171175
      }
    }
  ],
  "meshes": [
    {
      "name": "Suzanne",
      "primitives": [
        {
          "attributes": {
            "NORMAL": 1,
            "POSITION": 0,
            "TEXCOORD_0": 2
          },
          "indices": 3,
          "material": 0
        }
      ]
    }
  ],
  "nodes": [
    {
      "matrix": [
        1.0,
        0.0,
        0.0,
        0.0,
        0.0,
        1.0,
        0.0,
        0.0,
        0.0,
        0.0,
        1.0,
        0.0,
        0.0,
        0.0,
        0.0,
        1.0
      ],
      "mesh": 0,
      "name": "Suzanne"
    }
  ],
  "scene": 0,
  "scenes": [
    {
      "nodes": [
        0
      ]
    }
  ]
}