{
  "accessors": [
    {
      "bufferView": 0,
      "byteOffset": 0,
      "componentType": 5126,
      "count": 2904,
      "max": [
        1.3359370000000002,
        0.9492188,
        0.8251953000000002
      ],
      "min": [
        -1.3359370000000002,
        -0.9746094000000001,
        -0.7734375
      ],
      "type": "VEC3"
    },
    {
      "bufferView": 0,
      "byteOffset": 34848,
      "componentType": 5126,
      "count": 2904,
      "max": [
        0.9992907,
        0.9875531999999999,
        0.9998635
      ],
      "min": [
        -0.9992907,
        -0.9708492,
        -0.9853752
      ],
      "type": "VEC3"
    },
    {
      "bufferView": 0,
      "byteOffset": 69696,
      "componentType": 5126,
      "count": 2904,
      "max": [
        1.0,
        1.0
      ],
      "min": [
        0.0,
        0.0
      ],
      "type": "VEC2"
    },
    {
      "bufferView": 1,
      "byteOffset": 0,
      "componentType": 5123,
      "count": 2904,
      "max": [
        2903
      ],
      "min": [
        0
      ],
      "type": "SCALAR"
    }
  ],
  "asset": {
    "generator": "clay fbx2gltf",
    "version": "2.0"
  },
  "bufferViews": [
    {
      "buffer": 0,
      "byteLength": 92928,
      "byteOffset": 0,
      "target": 34962
    },
    {
      "buffer": 0,
      "byteLength": 5808,
      "byteOffset": 92928,
      "target": 34963
    }
  ],
  "buffers": [
    {
      "byteLength": 98736,
      "uri": "suzanne_low.bin"
    }
  ],
  "extensionsUsed": [
    "KHR_materials_common"
  ],
  "materials": [
    {
      "emissiveFactor": [
        0.0,
        0.0,
        0.0
      ],
      "name": "Material_001",
      "pbrMetallicRoughness": {
        "baseColorFactor": [
          0.64,
          0.64,
          0.64,
          1
        ],
        "metallicFactor": 0,
        "roughnessFactor": 0.565857216171175
      }
    }
  ],
  "meshes": [
    {
      "name": "Suzanne",
      "primitives": [
        {
          "attributes": {
            "NORMAL": 1,
            "POSITION": 0,
            "TEXCOORD_0": 2
          },
          "indices": 3,
          "material": 0
        }
      ]
    }
  ],
  "nodes": [
    {
      "matrix": [
        1.0,
        0.0,
        0.0,
        0.0,
        0.0,
        1.0,
        0.0,
        0.0,
        0.0,
        0.0,
        1.0,
        0.0,
        0.0,
        0.0,
        0.0,
        1.0
      ],
      "mesh": 0,
      "name": "Suzanne"
    }
  ],
  "scene": 0,
  "scenes": [
    {
      "nodes": [
        0
      ]
    }
  ]
}