{
  "accessors": [
    {
      "bufferView": 0,
      "byteOffset": 0,
      "componentType": 5126,
      "count": 9908,
      "max": [
        1.300243,
        0.9041575999999999,
        0.8159859
      ],
      "min": [
        -1.300243,
        -0.9601803,
        -0.7306395
      ],
      "type": "VEC3"
    },
    {
      "bufferView": 0,
      "byteOffset": 118896,
      "componentType": 5126,
      "count": 9908,
      "max": [
        0.9989508,
        0.9999998,
        0.9999988999999999
      ],
      "min": [
        -0.9989508,
        -0.9995333000000001,
        -0.9995059000000001
      ],
      "type": "VEC3"
    },
    {
      "bufferView": 0,
      "byteOffset": 237792,
      "componentType": 5126,
      "count": 9908,
      "max": [
        1.0,
        1.0
      ],
      "min": [
        0.0,
        0.0
      ],
      "type": "VEC2"
    },
    {
      "bufferView": 1,
      "byteOffset": 0,
      "componentType": 5123,
      "count": 47232,
      "max": [
        9907
      ],
      "min": [
        0
      ],
      "type": "SCALAR"
    }
  ],
  "asset": {
    "generator": "clay fbx2gltf",
    "version": "2.0"
  },
  "bufferViews": [
    {
      "buffer": 0,
      "byteLength": 317056,
      "byteOffset": 0,
      "target": 34962
    },
    {
      "buffer": 0,
      "byteLength": 94464,
      "byteOffset": 317056,
      "target": 34963
    }
  ],
  "buffers": [
    {
      "byteLength": 411520,
      "uri": "suzanne_high.bin"
    }
  ],
  "extensionsUsed": [
    "KHR_materials_common"
  ],
  "materials": [
    {
      "emissiveFactor": [
        0.0,
        0.0,
        0.0
      ],
      "name": "Material_001",
      "pbrMetallicRoughness": {
        "baseColorFactor": [
          0.64,
          0.64,
          0.64,
          1
        ],
        "metallicFactor": 0,
        "roughnessFactor": 0.565857216171175
      }
    }
  ],
  "meshes": [
    {
      "name": "Suzanne",
      "primitives": [
        {
          "attributes": {
            "NORMAL": 1,
            "POSITION": 0,
            "TEXCOORD_0": 2
          },
          "indices": 3,
          "material": 0
        }
      ]
    }
  ],
  "nodes": [
    {
      "matrix": [
        1.0,
        0.0,
        0.0,
        0.0,
        0.0,
        1.0,
        0.0,
        0.0,
        0.0,
        0.0,
        1.0,
        0.0,
        0.0,
        0.0,
        0.0,
        1.0
      ],
      "mesh": 0,
      "name": "Suzanne"
    }
  ],
  "scene": 0,
  "scenes": [
    {
      "nodes": [
        0
      ]
    }
  ]
}