<?xml version="1.0" encoding="utf-8"?>
<!-- Generator: Adobe Illustrator 16.0.4, SVG Export Plug-In . SVG Version: 6.00 Build 0)  -->
<!DOCTYPE svg PUBLIC "-//W3C//DTD SVG 1.1//EN" "http://www.w3.org/Graphics/SVG/1.1/DTD/svg11.dtd">
<svg version="1.1" id="图层_1" xmlns="http://www.w3.org/2000/svg" xmlns:xlink="http://www.w3.org/1999/xlink" x="0px" y="0px"
	 width="186px" height="49px" viewBox="0 0 186 49" enable-background="new 0 0 186 49" xml:space="preserve">
<path d="M28.404,40.339h-20V8.679h20c2.209,0,4-1.791,4-4s-1.791-4-4-4h-24c-2.209,0-4,1.791-4,4v39
	c0,0.112,0.024,0.219,0.033,0.329c-0.009,0.11-0.033,0.218-0.033,0.33c0,2.209,1.791,4,4,4h24c2.209,0,4-1.791,4-4
	S30.613,40.339,28.404,40.339z"/>
<path d="M56.697,40.339h-12V4.679c0-2.209-1.791-4-4-4c-2.209,0-4,1.791-4,4v39.1c0,0.097,0.021,0.187,0.028,0.279
	c-0.007,0.096-0.028,0.186-0.028,0.28c0,2.209,1.791,4,4,4h16c2.209,0,4-1.791,4-4S58.906,40.339,56.697,40.339z"/>
<path d="M182.096,40.156h-12V4.861c0-2.209-1.791-4-4-4s-4,1.791-4,4v39.1c0,0.033,0.01,0.064,0.01,0.098s-0.01,0.064-0.01,0.099
	c0,2.209,1.791,4,4,4h16c2.209,0,4-1.791,4-4S184.305,40.156,182.096,40.156z"/>
<path d="M157.725,24.598c0-2.209-1.791-4-4-4h-9.022c-2.209,0-4,1.791-4,4c0,2.208,1.791,4,4,4h5.022v11.56h-18.002V8.861h22
	c2.209,0,4-1.791,4-4s-1.791-4-4-4h-26c-2.209,0-4,1.791-4,4v39c0,0.051,0.014,0.098,0.016,0.146
	c-0.002,0.051-0.016,0.098-0.016,0.146c0,2.21,1.791,4,4,4h26h0.002l0,0c2.209,0,4-1.79,4-4V24.725c0-0.022-0.006-0.042-0.007-0.064
	C157.719,24.64,157.725,24.62,157.725,24.598z"/>
<path fill="#20A5DE" d="M114.891,9.35c-1.189,0-2.351-0.479-3.189-1.319c-0.83-0.83-1.311-1.99-1.311-3.181
	c0-1.18,0.479-2.34,1.311-3.18c0.84-0.84,2-1.32,3.189-1.32c1.18,0,2.34,0.48,3.18,1.32c0.83,0.84,1.32,2,1.32,3.18
	c0,1.181-0.49,2.34-1.32,3.181C117.229,8.87,116.068,9.35,114.891,9.35z"/>
<path d="M111.641,10.95c-1.957-1.018-4.375-0.259-5.396,1.7l-4.335,8.326L92.551,3.003c-1.02-1.96-3.437-2.72-5.395-1.7
	c-1.959,1.02-2.721,3.436-1.701,5.395l12.429,23.87v13.578c0,2.209,1.791,4,4,4s4-1.791,4-4V30.665l7.456-14.32
	C114.361,14.386,113.6,11.97,111.641,10.95z"/>
<path fill="#ED1C5E" d="M89,48.65c-1.18,0-2.34-0.48-3.18-1.32c-0.84-0.84-1.32-2-1.32-3.18c0-1.19,0.48-2.352,1.32-3.182
	c0.84-0.84,2-1.318,3.18-1.318c1.19,0,2.35,0.479,3.189,1.318c0.83,0.83,1.311,1.99,1.311,3.182c0,1.18-0.48,2.34-1.311,3.18
	C91.35,48.17,90.19,48.65,89,48.65z"/>
<path d="M87.521,32.271L72.562,3.028L72.553,3.03c-0.614-1.383-1.994-2.351-3.604-2.351c-2.179,0-3.946,1.767-3.946,3.947v0.228
	v6.658v32.659c0,2.209,1.791,4,4,4s4-1.791,4-4V21.454L80.4,35.915c0.708,1.384,2.11,2.181,3.564,2.181
	c0.613,0,1.235-0.143,1.818-0.441C87.748,36.648,88.527,34.238,87.521,32.271z"/>
</svg>
